<?xml version="1.0" encoding="UTF-8"?>
<svg id="Ebene_1" data-name="Ebene 1" xmlns="http://www.w3.org/2000/svg" viewBox="0 0 1915.1669921875 460.3978873239">
  <defs>
    <style>
      .cls-1 {
        fill-rule: evenodd;
        stroke: #000;
      }

      .cls-2 {
        font-family: NHaasGroteskTXPro-75Bd, 'Neue Haas Grotesk Text Pro';
      }

      .cls-2, .cls-3, .cls-4 {
        isolation: isolate;
      }

      .cls-2, .cls-4 {
        font-size: 152.1352386475px;
      }

      .cls-5 {
        letter-spacing: .0000071069em;
      }

      .cls-6 {
        letter-spacing: .0099923304em;
      }

      .cls-7 {
        letter-spacing: -.0099923304em;
      }

      .cls-8 {
        letter-spacing: -.0000071069em;
      }

      .cls-9 {
        letter-spacing: -.0049890583em;
      }

      .cls-4 {
        font-family: Arial-BoldMT, Arial;
        font-weight: 700;
      }
    </style>
  </defs>
  <path class="cls-1" d="M.5901754283,344.6537437685c29.5692610803-.0047455035,30.0365063245-.1389204001,45.9048204962,0,23.8475565993.2099584198,19.4898760169.0868162167,47.5442783711,0,.2082093489,0-.0098375978-69.8553053733,0-131.0310125357.0016385573-13.254649029,13.4468391933-29.9366356002,32.7891574973-29.9950510624,13.5255274676-.041047401,34.3909035383,4.2908746503,34.4286153722,34.7311117564.0623027014,50.9915916238.0098313438,87.6329010371,0,126.2949518416,0,.089995945,41.7815849416.0994628632,93.4490988673,0,.0508328003,0-.1131229936-60.5300055282,0-154.711316006-.4852881365-59.1249871969-40.9684102333-80.7593041608-86.8912673679-80.513031799-23.1917772018.1247200228-31.2759435825,3.1368500955-40.9864468716,7.8934344901-27.3625496801,13.3998927524-35.7483794618,35.8725017092-37.7075311219,34.7311117564-.0704954878-.041047401-.016391827-5.4133187223,0-36.3097986545,0-.1610219203-88.5307252428-.0820948021-88.5307252428,0-.078693942,87.8933978651-.155748545,228.909600213,0,228.909600213ZM336.6790397757,459.8978873239h14.7551208738V.5h-14.7551208738v459.3978873239ZM410.4546441447,178.8916194763l8.1972893743,6.3147475921c8.2005915051-9.8667931126,13.9616088531-19.8362047278,19.6734944984-26.8376772663,10.285937093-12.6073936639,15.8010957985-20.7060531148,27.8707838727-23.6803034703,3.7527214771-.9251082097,5.7938385262.6172647464,6.5578314995,3.157373796.5459522806,4.8781367336.0098563599,16.6977768126-3.2789157497,28.4163641644-13.6616152795,48.9392938386-31.3464265623,91.5212269089-37.7075311219,127.8736387397-1.6509152678,13.4740984559.280330886,28.6137000266,11.4762051241,42.6245462466,6.0004218259,8.5722582936,12.9484551065,10.375140122,22.9524102481,14.2081820822,9.8597120674,1.4066202398,18.1078342421,1.4239642121,27.8707838727,0,24.8132109464-3.621517765,46.9245785042-16.3078385472,63.9388571198-34.7311117564,11.2007774019-12.7494817479,21.0620905024-26.4651191065,29.5102417476-41.0458593485,7.8038354947-15.6163680973,15.5814040404-29.4188216726,21.3129523733-45.7819200426-1.8050647342,10.8913641855-3.2789157497,21.3296411844-4.9183736246,31.5737379604-2.8247727099,22.3921040189-4.3937350969,44.2363794027,8.1972893743,63.1474759208,14.674769026,22.0400454707,21.3572309444,21.6785200043,36.068073247,26.8376772663,17.5848467798.7767208914,29.9250093801,1.5360737217,44.2653626214-3.157373796,12.8287778837-3.6593854378,28.9249640919-11.7264764502,45.9048204962-26.8376772663,15.3945334605-13.6998350728,34.8532393646-37.9484667899,49.183736246-71.0409104109,10.5695701097-23.9755123316,21.1850698559-51.4557235484,21.3129523733-85.2490924931.0852550116-22.5894278368-4.5232686796-36.7123594775-14.7551208738-45.7819200426-4.9987254723-4.4297950504-15.3535069878-11.2923471888-27.8707838727-9.4721213881-14.6911796151,2.1359583625-29.2872978911,15.793180259-27.8707838727,33.1524248584,1.2755230427,15.6195237367,14.9354372245,27.1392094509,29.5102417476,28.4163641644,9.8055771364.8588036491,19.2505215713-4.5387248318,26.2313259979-11.0508082861.8180778721,7.8602761876.2000290705,23.3045776266-1.6394578749,31.5737379604-5.0790272878,22.8420114773-13.6485068212,43.6648955164-18.0340366235,52.0966676347-18.9226099834,36.3792708989-24.5328300281,48.3757110953-49.183736246,67.8835366149-20.1341917674,15.6116466826-32.3415686866,16.3378291659-40.9864468716,15.7868689802-15.1141525422-.9645657466-22.5966306782-20.1093241134-24.591868123-25.2589903683-.3410200462-.8809051693.3213573587-34.6395500362,3.2789157497-45.7819200426,5.0872325824-19.1700034819,7.5578767876-32.4025389463,13.1156629989-52.0966676347,7.0480478159-24.9732484252,18.0504472126-59.0144795958,26.2313259979-89.9851531872l-63.9388571198,1.578686898c-6.374213018,17.54236804-10.7646960164,35.1762978002-18.0340366235,52.0966676347-18.5373613983,43.1470815888-30.0873141087,75.5559559028-63.9388571198,124.7162649436-20.1784703386,22.9572766264-31.7300741143,29.9697818583-39.3469889968,29.9950510624-10.6400655975-.2920532219-14.5141153628-3.7288576823-18.0340366235-17.3655558782-1.2918835995-5.0028688008,13.3779822628-52.3429520409,21.3129523733-78.934344901,4.2412867282-14.2113377216,22.7147068679-61.6540394643,21.3129523733-86.8277793911-.6410136198-11.4991499693-11.2007774019-22.5720597756-19.6734944984-25.2589903683-15.5486328945-4.9318187366-29.7611036185-9.5147466089-59.0204834952,4.7360606941-10.9778335453,5.3470141616-20.653877099,14.6439012077-31.1496996225,26.8376772663-8.3448345792,11.6159808936-15.4223764264,20.4708375353-21.3129523733,33.1524248584Z"/>
  <g class="cls-3">
    <text class="cls-2" transform="translate(849.1500649452 202.8446646677) scale(.9032100439 1)"><tspan class="cls-9" x="0" y="0">R</tspan><tspan class="cls-5" x="108.016969449" y="0">eactor </tspan><tspan class="cls-6" x="626.6386561387" y="0">C</tspan><tspan x="742.1068054259" y="0">o</tspan><tspan class="cls-7" x="835.8220290563" y="0">n</tspan><tspan x="926.1898170372" y="0">t</tspan><tspan class="cls-7" x="985.3689329422" y="0">r</tspan><tspan class="cls-8" x="1046.2228478851" y="0">ol</tspan></text>
    <text class="cls-4" transform="translate(849.698404789 365.8139029489) scale(.9032100439 1)"><tspan x="0" y="0">U1 - PTC</tspan></text>
  </g>
</svg>