<?xml version="1.0" encoding="UTF-8"?>
<svg id="Ebene_1" data-name="Ebene 1" xmlns="http://www.w3.org/2000/svg" viewBox="0 0 1920.5 460.397887323943905">
  <defs>
    <style>
      .cls-1 {
        fill-rule: evenodd;
        stroke: #000;
      }

      .cls-2 {
        font-family: Arial-BoldMT, Arial;
        font-weight: 700;
      }

      .cls-2, .cls-3 {
        font-size: 150.492279052734375px;
      }

      .cls-2, .cls-3, .cls-4 {
        isolation: isolate;
      }

      .cls-5 {
        letter-spacing: -.009999242560645em;
      }

      .cls-6 {
        letter-spacing: -.009991661633761em;
      }

      .cls-3 {
        font-family: NHaasGroteskTXPro-75Bd, 'Neue Haas Grotesk Text Pro';
      }

      .cls-7 {
        letter-spacing: .004988249889996em;
      }

      .cls-8 {
        letter-spacing: .009991661633761em;
      }
    </style>
  </defs>
  <path class="cls-1" d="M.590175428260409,344.653743768453751c29.569261080336219-.004745503523736,30.03650632451172-.138920400100687,45.904820496241882,0,23.847556599313975.20995841984768,19.489876016920789.086816216742591,47.544278371106884,0,.208209348946184,0-.009837597797741-69.855305373279407,0-131.031012535695481.001638557294427-13.254649029033317,13.446839193330561-29.936635600235604,32.78915749731641-29.995051062389393,13.52552746764286-.04104740103503,34.390903538283055,4.29087465032535,34.428615372181412,34.731111756449536.062302701375302,50.991591623831482.009831343762016,87.632901037128249,0,126.294951841635338,0,.089995944992552,41.781584941600158.099462863187,93.449098867349676,0,.050832800319768,0-.11312299362362-60.530005528178663,0-154.711316006003472-.4852881365141-59.124987196917573-40.968410233341274-80.759304160825195-86.89126736788694-80.513031799040618-23.191777201789591.124720022804468-31.275943582494619,3.136850095523187-40.986446871644148,7.893434490102663-27.362549680056873,13.399892752355299-35.748379461771947,35.872501709229255-37.707531121913235,34.731111756448627-.07049548784471-.04104740103503-.016391826973631-5.413318722287841,0-36.309798654469887,0-.161021920315761-88.530725242751942-.08209480207006-88.530725242751942,0-.078693942034079,87.893397865056613-.155748545018469,228.909600212962687,0,228.909600212962687ZM336.679039775746787,459.897887323943905h14.755120873791384V.5h-14.755120873791384v459.397887323943905ZM410.454644144707345,178.891619476308733l8.197289374328648,6.314747592081403c8.200591505057673-9.866793112628329,13.961608853058351-19.836204727843324,19.673494498389118-26.837677266346873,10.285937092960921-12.607393663947732,15.801095798472488-20.706053114799033,27.870783872718675-23.680303470307081,3.752721477116211-.925108209709833,5.793838526159561.617264746373621,6.557831499462736,3.157373796040702.545952280595884,4.878136733558676.009856359904006,16.69777681261985-3.278915749730913,28.416364164368133-13.661615279521357,48.939293838632693-31.346426562269698,91.521226908876088-37.707531121915054,127.87363873965387-1.650915267849996,13.47409845592847.280330886014781,28.613700026620791,11.47620512406229,42.6245462465522,6.000421825882768,8.572258293603227,12.94845510653704,10.375140122039738,22.952410248120941,14.208182082184067,9.859712067448527,1.406620239808035,18.107834242096942,1.423964212077408,27.870783872717766,0,24.813210946425897-3.621517765021053,46.924578504223064-16.307838547212668,63.938857119766908-34.731111756449536,11.200777401856612-12.74948174786914,21.062090502387946-26.465119106485872,29.510241747582768-41.045859348532758,7.803835494692976-15.616368097265877,15.581404040401139-29.41882167262338,21.312952373255939-45.781920042591082-1.805064734173357,10.891364185526982-3.278915749731823,21.32964118439304-4.918373624598644,31.573737960408835-2.824772709869649,22.392104018928876-4.39373509689176,44.236379402684179,8.197289374330467,63.147475920817669,14.674769026042668,22.040045470732366,21.357230944399817,21.678520004339589,36.068073247045504,26.837677266346873,17.584846779758664.776720891415607,29.925009380112897,1.536073721710636,44.26536262137779-3.157373796042521,12.828777883738439-3.659385437806122,28.924964091938818-11.726476450243354,45.904820496241882-26.837677266346873,15.394533460485945-13.699835072769929,34.853239364612818-37.948466789917802,49.183736245972796-71.040910410918514,10.569570109704728-23.975512331622667,21.185069855917391-51.455723548384412,21.312952373255939-85.24909249310349.085255011558729-22.58942783675684-4.523268679595276-36.712359477471182-14.755120873792293-45.781920042591992-4.99872547234645-4.429795050424218-15.353506987786204-11.292347188828899-27.870783872717766-9.472121388122105-14.691179615122564,2.135958362541714-29.287297891065464,15.793180259001019-27.870783872718675,33.152424858429185,1.275523042659188,15.619523736666451,14.935437224531597,27.139209450885573,29.510241747583677,28.416364164367224,9.805577136401553.858803649060064,19.250521571323588-4.538724831809304,26.231325997852764-11.050808286143365.818077872069807,7.860276187564523.200029070548226,23.304577626619903-1.639457874865002,31.573737960408835-5.079027287811186,22.842011477338019-13.648506821171395,43.664895516443721-18.034036623523207,52.096667634672485-18.922609983435905,36.379270898945833-24.532830028128046,48.375711095315637-49.183736245974615,67.883536614879631-20.134191767426273,15.611646682595165-32.341568686629216,16.337829165926451-40.986446871645057,15.786868980203508-15.114152542189004-.964565746618973-22.596630678168367-20.10932411336762-24.591868122985943-25.258990368325613-.341020046237645-.880905169276957.321357358711793-34.639550036183209,3.278915749731823-45.781920042592901,5.087232582351135-19.170003481936874,7.557876787634996-32.402538946329514,13.115662998925472-52.096667634674304,7.04804781592793-24.973248425206293,18.050447212603103-59.014479595834018,26.231325997852764-89.985153187163633l-63.938857119765999,1.578686898020351c-6.374213017994407,17.542368039959911-10.764696016441121,35.176297800186148-18.034036623523207,52.096667634674304-18.537361398339272,43.147081588835135-30.087314108689498,75.555955902809728-63.938857119765089,124.716264943614078-20.17847033857106,22.957276626371822-31.730074114286253,29.969781858346323-39.346988996780055,29.995051062387574-10.640065597547618-.29205322191774-14.514115362828306-3.728857682281159-18.034036623523207-17.365555878224768-1.291883599454195-5.002868800787837,13.377982262779369-52.342952040884484,21.31295237325503-78.934344901021177,4.241286728218256-14.211337721582822,22.714706867887799-61.654039464265225,21.31295237325503-86.82777939112384-.64101361977373-11.499149969276914-11.200777401857522-22.572059775638081-19.673494498389118-25.258990368326522-15.548632894525326-4.931818736613423-29.761103618451671-9.514746608857422-59.020483495168264,4.736060694061052-10.977833545339308,5.347014161637162-20.653877099036436,14.643901207723502-31.149699622451408,26.837677266347782-8.344834579191229,11.615980893585402-15.422376426407936,20.470837535333885-21.312952373253211,33.152424858429185Z"/>
  <g class="cls-4">
    <text class="cls-3" transform="translate(910.8359375 211.415465448943905) scale(.855979800224304 1)"><tspan x="0" y="0">P</tspan><tspan class="cls-5" x="103.236272677630495" y="0">r</tspan><tspan x="163.432047360628758" y="0">oce</tspan><tspan class="cls-7" x="432.66048184250667" y="0">s</tspan><tspan x="514.524818748164307" y="0">s </tspan><tspan class="cls-8" x="631.906750510655456" y="0">C</tspan><tspan x="746.128469702369557" y="0">o</tspan><tspan class="cls-6" x="838.831080767731464" y="0">n</tspan><tspan x="928.222884295045105" y="0">t</tspan><tspan class="cls-5" x="986.763255209019007" y="0">r</tspan><tspan x="1046.959029892017043" y="0">ol</tspan></text>
    <text class="cls-2" transform="translate(909.03857421875 358.083434198943905) scale(.855979800224304 1)"><tspan x="0" y="0">U1 - PTC</tspan></text>
  </g>
</svg>